<mxfile host="app.diagrams.net" modified="2020-12-16T22:37:32.350Z" agent="5.0 (X11; Linux x86_64) AppleWebKit/537.36 (KHTML, like Gecko) Chrome/87.0.4280.88 Safari/537.36" etag="DWQwFf_SJ1lPugiXO0Xo" version="13.11.0" type="github">
  <diagram id="zNfq5neE3M64kurw_uy2" name="Page-1">
    <mxGraphModel dx="779" dy="426" grid="1" gridSize="10" guides="1" tooltips="1" connect="1" arrows="1" fold="1" page="1" pageScale="1" pageWidth="827" pageHeight="1169" math="0" shadow="0">
      <root>
        <mxCell id="0" />
        <mxCell id="1" parent="0" />
        <mxCell id="JLZIl9Gp42pbkCICVa5f-4" style="edgeStyle=orthogonalEdgeStyle;rounded=0;orthogonalLoop=1;jettySize=auto;html=1;dashed=1;fillColor=#dae8fc;strokeColor=#6c8ebf;" edge="1" parent="1" source="JLZIl9Gp42pbkCICVa5f-2" target="JLZIl9Gp42pbkCICVa5f-3">
          <mxGeometry relative="1" as="geometry" />
        </mxCell>
        <mxCell id="JLZIl9Gp42pbkCICVa5f-2" value="User" style="html=1;verticalLabelPosition=bottom;align=center;labelBackgroundColor=#ffffff;verticalAlign=top;strokeWidth=2;strokeColor=#0080F0;shadow=0;dashed=0;shape=mxgraph.ios7.icons.user;" vertex="1" parent="1">
          <mxGeometry x="400" y="30" width="50" height="50" as="geometry" />
        </mxCell>
        <mxCell id="JLZIl9Gp42pbkCICVa5f-29" style="edgeStyle=orthogonalEdgeStyle;rounded=0;orthogonalLoop=1;jettySize=auto;html=1;dashed=1;fontSize=10;fillColor=#dae8fc;strokeColor=#6c8ebf;" edge="1" parent="1" source="JLZIl9Gp42pbkCICVa5f-3" target="JLZIl9Gp42pbkCICVa5f-8">
          <mxGeometry relative="1" as="geometry">
            <Array as="points">
              <mxPoint x="340" y="180" />
            </Array>
          </mxGeometry>
        </mxCell>
        <mxCell id="JLZIl9Gp42pbkCICVa5f-30" style="edgeStyle=orthogonalEdgeStyle;rounded=0;orthogonalLoop=1;jettySize=auto;html=1;dashed=1;fontSize=10;fillColor=#dae8fc;strokeColor=#6c8ebf;" edge="1" parent="1" source="JLZIl9Gp42pbkCICVa5f-3" target="JLZIl9Gp42pbkCICVa5f-9">
          <mxGeometry relative="1" as="geometry">
            <mxPoint x="468.5" y="160" as="sourcePoint" />
          </mxGeometry>
        </mxCell>
        <mxCell id="JLZIl9Gp42pbkCICVa5f-32" style="edgeStyle=orthogonalEdgeStyle;rounded=0;orthogonalLoop=1;jettySize=auto;html=1;dashed=1;fontSize=10;fillColor=#dae8fc;strokeColor=#6c8ebf;" edge="1" parent="1" source="JLZIl9Gp42pbkCICVa5f-3" target="JLZIl9Gp42pbkCICVa5f-7">
          <mxGeometry relative="1" as="geometry" />
        </mxCell>
        <mxCell id="JLZIl9Gp42pbkCICVa5f-39" style="edgeStyle=orthogonalEdgeStyle;rounded=0;orthogonalLoop=1;jettySize=auto;html=1;dashed=1;fontSize=10;jumpStyle=arc;fillColor=#dae8fc;strokeColor=#6c8ebf;" edge="1" parent="1">
          <mxGeometry relative="1" as="geometry">
            <mxPoint x="142.61817604250842" y="293" as="targetPoint" />
            <mxPoint x="396.7157287525381" y="153" as="sourcePoint" />
            <Array as="points">
              <mxPoint x="250" y="153" />
              <mxPoint x="250" y="293" />
            </Array>
          </mxGeometry>
        </mxCell>
        <mxCell id="JLZIl9Gp42pbkCICVa5f-41" style="edgeStyle=orthogonalEdgeStyle;rounded=0;orthogonalLoop=1;jettySize=auto;html=1;dashed=1;fontSize=10;fillColor=#dae8fc;strokeColor=#6c8ebf;" edge="1" parent="1" source="JLZIl9Gp42pbkCICVa5f-3" target="JLZIl9Gp42pbkCICVa5f-15">
          <mxGeometry relative="1" as="geometry">
            <Array as="points">
              <mxPoint x="196" y="140" />
            </Array>
          </mxGeometry>
        </mxCell>
        <mxCell id="JLZIl9Gp42pbkCICVa5f-46" style="edgeStyle=orthogonalEdgeStyle;rounded=0;orthogonalLoop=1;jettySize=auto;html=1;entryX=0;entryY=0.5;entryDx=0;entryDy=0;dashed=1;fontSize=10;fillColor=#dae8fc;strokeColor=#6c8ebf;" edge="1" parent="1">
          <mxGeometry relative="1" as="geometry">
            <mxPoint x="395" y="167" as="sourcePoint" />
            <mxPoint x="300" y="322" as="targetPoint" />
            <Array as="points">
              <mxPoint x="270" y="167" />
              <mxPoint x="270" y="322" />
            </Array>
          </mxGeometry>
        </mxCell>
        <mxCell id="JLZIl9Gp42pbkCICVa5f-48" style="edgeStyle=orthogonalEdgeStyle;rounded=0;jumpStyle=arc;jumpSize=10;orthogonalLoop=1;jettySize=auto;html=1;dashed=1;strokeColor=#6c8ebf;fontSize=10;fillColor=#dae8fc;" edge="1" parent="1" target="JLZIl9Gp42pbkCICVa5f-14">
          <mxGeometry relative="1" as="geometry">
            <mxPoint x="419" y="130" as="sourcePoint" />
            <mxPoint x="349.9799999999999" y="95.36000000000001" as="targetPoint" />
            <Array as="points">
              <mxPoint x="350" y="130" />
            </Array>
          </mxGeometry>
        </mxCell>
        <mxCell id="JLZIl9Gp42pbkCICVa5f-3" value="&lt;font color=&quot;#66b2ff&quot; size=&quot;1&quot;&gt;&lt;b style=&quot;font-size: 11px&quot;&gt;Front-end&lt;/b&gt;&lt;/font&gt;" style="ellipse;whiteSpace=wrap;html=1;aspect=fixed;strokeWidth=2;strokeColor=#5FA6ED;" vertex="1" parent="1">
          <mxGeometry x="395" y="130" width="60" height="60" as="geometry" />
        </mxCell>
        <mxCell id="JLZIl9Gp42pbkCICVa5f-6" style="edgeStyle=orthogonalEdgeStyle;rounded=0;orthogonalLoop=1;jettySize=auto;html=1;dashed=1;curved=1;fillColor=#dae8fc;strokeColor=#6c8ebf;" edge="1" parent="1" source="JLZIl9Gp42pbkCICVa5f-5" target="JLZIl9Gp42pbkCICVa5f-3">
          <mxGeometry relative="1" as="geometry">
            <Array as="points">
              <mxPoint x="440" y="95" />
            </Array>
          </mxGeometry>
        </mxCell>
        <mxCell id="JLZIl9Gp42pbkCICVa5f-5" value="&lt;b&gt;&lt;font color=&quot;#66b2ff&quot; style=&quot;font-size: 10px&quot;&gt;Load Generator&lt;/font&gt;&lt;/b&gt;" style="rounded=1;whiteSpace=wrap;html=1;strokeColor=#5FA6ED;strokeWidth=2;" vertex="1" parent="1">
          <mxGeometry x="500" y="80" width="80" height="30" as="geometry" />
        </mxCell>
        <mxCell id="JLZIl9Gp42pbkCICVa5f-35" style="edgeStyle=orthogonalEdgeStyle;rounded=0;orthogonalLoop=1;jettySize=auto;html=1;dashed=1;fontSize=10;jumpStyle=arc;jumpSize=10;fillColor=#dae8fc;strokeColor=#6c8ebf;" edge="1" parent="1" source="JLZIl9Gp42pbkCICVa5f-8" target="JLZIl9Gp42pbkCICVa5f-11">
          <mxGeometry relative="1" as="geometry" />
        </mxCell>
        <mxCell id="JLZIl9Gp42pbkCICVa5f-36" style="edgeStyle=orthogonalEdgeStyle;rounded=0;orthogonalLoop=1;jettySize=auto;html=1;dashed=1;fontSize=10;jumpStyle=arc;jumpSize=10;fillColor=#dae8fc;strokeColor=#6c8ebf;" edge="1" parent="1" source="JLZIl9Gp42pbkCICVa5f-8" target="JLZIl9Gp42pbkCICVa5f-10">
          <mxGeometry relative="1" as="geometry">
            <Array as="points">
              <mxPoint x="170" y="221" />
              <mxPoint x="170" y="152" />
            </Array>
          </mxGeometry>
        </mxCell>
        <mxCell id="JLZIl9Gp42pbkCICVa5f-37" style="edgeStyle=orthogonalEdgeStyle;rounded=0;orthogonalLoop=1;jettySize=auto;html=1;dashed=1;fontSize=10;jumpStyle=arc;jumpSize=10;fillColor=#dae8fc;strokeColor=#6c8ebf;" edge="1" parent="1" source="JLZIl9Gp42pbkCICVa5f-8" target="JLZIl9Gp42pbkCICVa5f-12">
          <mxGeometry relative="1" as="geometry">
            <Array as="points">
              <mxPoint x="170" y="221" />
              <mxPoint x="170" y="270" />
            </Array>
          </mxGeometry>
        </mxCell>
        <mxCell id="JLZIl9Gp42pbkCICVa5f-38" style="edgeStyle=orthogonalEdgeStyle;rounded=0;orthogonalLoop=1;jettySize=auto;html=1;dashed=1;fontSize=10;fillColor=#dae8fc;strokeColor=#6c8ebf;" edge="1" parent="1" source="JLZIl9Gp42pbkCICVa5f-8" target="JLZIl9Gp42pbkCICVa5f-13">
          <mxGeometry relative="1" as="geometry" />
        </mxCell>
        <mxCell id="JLZIl9Gp42pbkCICVa5f-44" style="rounded=0;orthogonalLoop=1;jettySize=auto;html=1;dashed=1;fontSize=10;fillColor=#dae8fc;strokeColor=#6c8ebf;" edge="1" parent="1" source="JLZIl9Gp42pbkCICVa5f-8" target="JLZIl9Gp42pbkCICVa5f-7">
          <mxGeometry relative="1" as="geometry">
            <Array as="points">
              <mxPoint x="370" y="221" />
              <mxPoint x="370" y="261" />
            </Array>
          </mxGeometry>
        </mxCell>
        <mxCell id="JLZIl9Gp42pbkCICVa5f-47" style="edgeStyle=orthogonalEdgeStyle;rounded=0;orthogonalLoop=1;jettySize=auto;html=1;dashed=1;fontSize=10;jumpStyle=arc;jumpSize=10;fillColor=#dae8fc;strokeColor=#6c8ebf;" edge="1" parent="1" source="JLZIl9Gp42pbkCICVa5f-8" target="JLZIl9Gp42pbkCICVa5f-14">
          <mxGeometry relative="1" as="geometry" />
        </mxCell>
        <mxCell id="JLZIl9Gp42pbkCICVa5f-8" value="&lt;font color=&quot;#66b2ff&quot; size=&quot;1&quot;&gt;&lt;b style=&quot;font-size: 11px&quot;&gt;Checkout&lt;/b&gt;&lt;/font&gt;&lt;span style=&quot;color: rgba(0 , 0 , 0 , 0) ; font-family: monospace ; font-size: 0px&quot;&gt;%3CmxGraphModel%3E%3Croot%3E%3CmxCell%20id%3D%220%22%2F%3E%3CmxCell%20id%3D%221%22%20parent%3D%220%22%2F%3E%3CmxCell%20id%3D%222%22%20value%3D%22%26lt%3Bfont%20color%3D%26quot%3B%2366b2ff%26quot%3B%20size%3D%26quot%3B1%26quot%3B%26gt%3B%26lt%3Bb%20style%3D%26quot%3Bfont-size%3A%2011px%26quot%3B%26gt%3BCart%26lt%3B%2Fb%26gt%3B%26lt%3B%2Ffont%26gt%3B%22%20style%3D%22ellipse%3BwhiteSpace%3Dwrap%3Bhtml%3D1%3Baspect%3Dfixed%3BstrokeColor%3D%2366B2FF%3BstrokeWidth%3D2%3B%22%20vertex%3D%221%22%20parent%3D%221%22%3E%3CmxGeometry%20x%3D%22500%22%20y%3D%22130%22%20width%3D%2260%22%20height%3D%2260%22%20as%3D%22geometry%22%2F%3E%3C%2FmxCell%3E%3C%2Froot%3E%3C%2FmxGraphModel%3E&lt;/span&gt;" style="ellipse;whiteSpace=wrap;html=1;aspect=fixed;strokeWidth=2;strokeColor=#5FA6ED;" vertex="1" parent="1">
          <mxGeometry x="300" y="191" width="60" height="60" as="geometry" />
        </mxCell>
        <mxCell id="JLZIl9Gp42pbkCICVa5f-9" value="&lt;font color=&quot;#66b2ff&quot;&gt;&lt;span style=&quot;font-size: 11px&quot;&gt;&lt;b&gt;Ad&lt;/b&gt;&lt;/span&gt;&lt;/font&gt;" style="ellipse;whiteSpace=wrap;html=1;aspect=fixed;strokeWidth=2;strokeColor=#5FA6ED;" vertex="1" parent="1">
          <mxGeometry x="500" y="130" width="60" height="60" as="geometry" />
        </mxCell>
        <mxCell id="JLZIl9Gp42pbkCICVa5f-10" value="&lt;font color=&quot;#66b2ff&quot;&gt;&lt;span style=&quot;font-size: 11px&quot;&gt;&lt;b&gt;Email&lt;/b&gt;&lt;/span&gt;&lt;/font&gt;" style="ellipse;whiteSpace=wrap;html=1;aspect=fixed;strokeWidth=2;strokeColor=#5FA6ED;" vertex="1" parent="1">
          <mxGeometry x="84" y="127" width="60" height="60" as="geometry" />
        </mxCell>
        <mxCell id="JLZIl9Gp42pbkCICVa5f-11" value="&lt;font color=&quot;#66b2ff&quot;&gt;&lt;span style=&quot;font-size: 11px&quot;&gt;&lt;b&gt;Payment&lt;/b&gt;&lt;/span&gt;&lt;/font&gt;&lt;span style=&quot;color: rgba(0 , 0 , 0 , 0) ; font-family: monospace ; font-size: 0px&quot;&gt;%3CmxGraphModel%3E%3Croot%3E%3CmxCell%20id%3D%220%22%2F%3E%3CmxCell%20id%3D%221%22%20parent%3D%220%22%2F%3E%3CmxCell%20id%3D%222%22%20value%3D%22%26lt%3Bfont%20color%3D%26quot%3B%2366b2ff%26quot%3B%20size%3D%26quot%3B1%26quot%3B%26gt%3B%26lt%3Bb%20style%3D%26quot%3Bfont-size%3A%2011px%26quot%3B%26gt%3BCheckout%26lt%3B%2Fb%26gt%3B%26lt%3B%2Ffont%26gt%3B%26lt%3Bspan%20style%3D%26quot%3Bcolor%3A%20rgba(0%20%2C%200%20%2C%200%20%2C%200)%20%3B%20font-family%3A%20monospace%20%3B%20font-size%3A%200px%26quot%3B%26gt%3B%253CmxGraphModel%253E%253Croot%253E%253CmxCell%2520id%253D%25220%2522%252F%253E%253CmxCell%2520id%253D%25221%2522%2520parent%253D%25220%2522%252F%253E%253CmxCell%2520id%253D%25222%2522%2520value%253D%2522%2526lt%253Bfont%2520color%253D%2526quot%253B%252366b2ff%2526quot%253B%2520size%253D%2526quot%253B1%2526quot%253B%2526gt%253B%2526lt%253Bb%2520style%253D%2526quot%253Bfont-size%253A%252011px%2526quot%253B%2526gt%253BCart%2526lt%253B%252Fb%2526gt%253B%2526lt%253B%252Ffont%2526gt%253B%2522%2520style%253D%2522ellipse%253BwhiteSpace%253Dwrap%253Bhtml%253D1%253Baspect%253Dfixed%253BstrokeColor%253D%252366B2FF%253BstrokeWidth%253D2%253B%2522%2520vertex%253D%25221%2522%2520parent%253D%25221%2522%253E%253CmxGeometry%2520x%253D%2522500%2522%2520y%253D%2522130%2522%2520width%253D%252260%2522%2520height%253D%252260%2522%2520as%253D%2522geometry%2522%252F%253E%253C%252FmxCell%253E%253C%252Froot%253E%253C%252FmxGraphModel%253E%26lt%3B%2Fspan%26gt%3B%22%20style%3D%22ellipse%3BwhiteSpace%3Dwrap%3Bhtml%3D1%3Baspect%3Dfixed%3BstrokeColor%3D%2366B2FF%3BstrokeWidth%3D2%3B%22%20vertex%3D%221%22%20parent%3D%221%22%3E%3CmxGeometry%20x%3D%22280%22%20y%3D%22120%22%20width%3D%2260%22%20height%3D%2260%22%20as%3D%22geometry%22%2F%3E%3C%2FmxCell%3E%3C%2Froot%3E%3C%2FmxGraphModel%3E&lt;/span&gt;" style="ellipse;whiteSpace=wrap;html=1;aspect=fixed;strokeWidth=2;strokeColor=#5FA6ED;" vertex="1" parent="1">
          <mxGeometry x="30" y="191" width="60" height="60" as="geometry" />
        </mxCell>
        <mxCell id="JLZIl9Gp42pbkCICVa5f-12" value="&lt;font color=&quot;#66b2ff&quot;&gt;&lt;span style=&quot;font-size: 11px&quot;&gt;&lt;b&gt;Shipping&lt;/b&gt;&lt;/span&gt;&lt;/font&gt;" style="ellipse;whiteSpace=wrap;html=1;aspect=fixed;strokeWidth=2;strokeColor=#5FA6ED;" vertex="1" parent="1">
          <mxGeometry x="84" y="251" width="60" height="60" as="geometry" />
        </mxCell>
        <mxCell id="JLZIl9Gp42pbkCICVa5f-13" value="&lt;font color=&quot;#66b2ff&quot;&gt;&lt;span style=&quot;font-size: 11px&quot;&gt;&lt;b&gt;Currency&lt;/b&gt;&lt;/span&gt;&lt;/font&gt;&lt;span style=&quot;color: rgba(0 , 0 , 0 , 0) ; font-family: monospace ; font-size: 0px&quot;&gt;%3CmxGraphModel%3E%3Croot%3E%3CmxCell%20id%3D%220%22%2F%3E%3CmxCell%20id%3D%221%22%20parent%3D%220%22%2F%3E%3CmxCell%20id%3D%222%22%20value%3D%22%26lt%3Bfont%20color%3D%26quot%3B%2366b2ff%26quot%3B%26gt%3B%26lt%3Bspan%20style%3D%26quot%3Bfont-size%3A%2011px%26quot%3B%26gt%3B%26lt%3Bb%26gt%3BShipping%26lt%3B%2Fb%26gt%3B%26lt%3B%2Fspan%26gt%3B%26lt%3B%2Ffont%26gt%3B%22%20style%3D%22ellipse%3BwhiteSpace%3Dwrap%3Bhtml%3D1%3Baspect%3Dfixed%3BstrokeColor%3D%2366B2FF%3BstrokeWidth%3D2%3B%22%20vertex%3D%221%22%20parent%3D%221%22%3E%3CmxGeometry%20x%3D%22180%22%20y%3D%22200%22%20width%3D%2260%22%20height%3D%2260%22%20as%3D%22geometry%22%2F%3E%3C%2FmxCell%3E%3C%2Froot%3E%3C%2FmxGraphModel%3E&lt;/span&gt;" style="ellipse;whiteSpace=wrap;html=1;aspect=fixed;strokeWidth=2;strokeColor=#5FA6ED;" vertex="1" parent="1">
          <mxGeometry x="300" y="285" width="60" height="60" as="geometry" />
        </mxCell>
        <mxCell id="JLZIl9Gp42pbkCICVa5f-14" value="&lt;font color=&quot;#66b2ff&quot;&gt;&lt;span style=&quot;font-size: 11px&quot;&gt;&lt;b&gt;Product Catalogue&lt;/b&gt;&lt;/span&gt;&lt;/font&gt;" style="ellipse;whiteSpace=wrap;html=1;aspect=fixed;strokeWidth=2;strokeColor=#5FA6ED;" vertex="1" parent="1">
          <mxGeometry x="300" y="51.5" width="60" height="60" as="geometry" />
        </mxCell>
        <mxCell id="JLZIl9Gp42pbkCICVa5f-42" style="edgeStyle=orthogonalEdgeStyle;rounded=0;orthogonalLoop=1;jettySize=auto;html=1;dashed=1;fontSize=10;fillColor=#dae8fc;strokeColor=#6c8ebf;" edge="1" parent="1" source="JLZIl9Gp42pbkCICVa5f-15" target="JLZIl9Gp42pbkCICVa5f-14">
          <mxGeometry relative="1" as="geometry" />
        </mxCell>
        <mxCell id="JLZIl9Gp42pbkCICVa5f-15" value="&lt;font color=&quot;#66b2ff&quot;&gt;&lt;span style=&quot;font-size: 11px&quot;&gt;&lt;b&gt;Recomme-ndation&lt;/b&gt;&lt;/span&gt;&lt;/font&gt;" style="ellipse;whiteSpace=wrap;html=1;aspect=fixed;strokeWidth=2;strokeColor=#5FA6ED;" vertex="1" parent="1">
          <mxGeometry x="165.5" y="51.5" width="60" height="60" as="geometry" />
        </mxCell>
        <mxCell id="JLZIl9Gp42pbkCICVa5f-17" value="&lt;b style=&quot;font-size: 10px&quot;&gt;&lt;font color=&quot;#66b2ff&quot; style=&quot;font-size: 10px&quot;&gt;Cache&lt;br&gt;(Redis)&lt;/font&gt;&lt;/b&gt;" style="shape=cylinder3;whiteSpace=wrap;html=1;boundedLbl=1;backgroundOutline=1;size=6;strokeColor=#5FA6ED;strokeWidth=2;" vertex="1" parent="1">
          <mxGeometry x="500" y="236" width="60" height="50" as="geometry" />
        </mxCell>
        <mxCell id="JLZIl9Gp42pbkCICVa5f-18" value="&lt;font style=&quot;font-size: 10px&quot;&gt;Java&lt;/font&gt;" style="text;html=1;align=center;verticalAlign=middle;resizable=0;points=[];autosize=1;" vertex="1" parent="1">
          <mxGeometry x="480" y="120" width="40" height="20" as="geometry" />
        </mxCell>
        <mxCell id="JLZIl9Gp42pbkCICVa5f-31" style="edgeStyle=orthogonalEdgeStyle;rounded=0;orthogonalLoop=1;jettySize=auto;html=1;dashed=1;fontSize=10;fillColor=#dae8fc;strokeColor=#6c8ebf;" edge="1" parent="1" source="JLZIl9Gp42pbkCICVa5f-7" target="JLZIl9Gp42pbkCICVa5f-17">
          <mxGeometry relative="1" as="geometry" />
        </mxCell>
        <mxCell id="JLZIl9Gp42pbkCICVa5f-7" value="&lt;font color=&quot;#66b2ff&quot; size=&quot;1&quot;&gt;&lt;b style=&quot;font-size: 11px&quot;&gt;Cart&lt;/b&gt;&lt;/font&gt;" style="ellipse;whiteSpace=wrap;html=1;aspect=fixed;strokeWidth=2;strokeColor=#5FA6ED;" vertex="1" parent="1">
          <mxGeometry x="395" y="231" width="60" height="60" as="geometry" />
        </mxCell>
        <mxCell id="JLZIl9Gp42pbkCICVa5f-19" value="&lt;font style=&quot;font-size: 10px&quot;&gt;Go&lt;/font&gt;" style="text;html=1;align=center;verticalAlign=middle;resizable=0;points=[];autosize=1;" vertex="1" parent="1">
          <mxGeometry x="384" y="222" width="30" height="20" as="geometry" />
        </mxCell>
        <mxCell id="JLZIl9Gp42pbkCICVa5f-21" value="&lt;font style=&quot;font-size: 10px&quot;&gt;Go&lt;/font&gt;" style="text;html=1;align=center;verticalAlign=middle;resizable=0;points=[];autosize=1;" vertex="1" parent="1">
          <mxGeometry x="290" y="178.5" width="30" height="20" as="geometry" />
        </mxCell>
        <mxCell id="JLZIl9Gp42pbkCICVa5f-22" value="&lt;font style=&quot;font-size: 10px&quot;&gt;Go&lt;/font&gt;" style="text;html=1;align=center;verticalAlign=middle;resizable=0;points=[];autosize=1;" vertex="1" parent="1">
          <mxGeometry x="120" y="236" width="30" height="20" as="geometry" />
        </mxCell>
        <mxCell id="JLZIl9Gp42pbkCICVa5f-23" value="&lt;font style=&quot;font-size: 10px&quot;&gt;NodeJS&lt;/font&gt;" style="text;whiteSpace=wrap;html=1;" vertex="1" parent="1">
          <mxGeometry x="340" y="270" width="40" height="25" as="geometry" />
        </mxCell>
        <mxCell id="JLZIl9Gp42pbkCICVa5f-24" value="&lt;font style=&quot;font-size: 10px&quot;&gt;Go&lt;/font&gt;" style="text;html=1;align=center;verticalAlign=middle;resizable=0;points=[];autosize=1;" vertex="1" parent="1">
          <mxGeometry x="280" y="45" width="30" height="20" as="geometry" />
        </mxCell>
        <mxCell id="JLZIl9Gp42pbkCICVa5f-25" value="Python" style="text;whiteSpace=wrap;html=1;fontSize=10;" vertex="1" parent="1">
          <mxGeometry x="136.5" y="45" width="40" height="30" as="geometry" />
        </mxCell>
        <mxCell id="JLZIl9Gp42pbkCICVa5f-26" value="&lt;font style=&quot;font-size: 10px&quot;&gt;Go&lt;/font&gt;" style="text;html=1;align=center;verticalAlign=middle;resizable=0;points=[];autosize=1;" vertex="1" parent="1">
          <mxGeometry x="440" y="171" width="30" height="20" as="geometry" />
        </mxCell>
        <mxCell id="JLZIl9Gp42pbkCICVa5f-27" value="&lt;font style=&quot;font-size: 10px&quot;&gt;NodeJS&lt;/font&gt;" style="text;whiteSpace=wrap;html=1;" vertex="1" parent="1">
          <mxGeometry x="10" y="173.5" width="40" height="25" as="geometry" />
        </mxCell>
        <mxCell id="JLZIl9Gp42pbkCICVa5f-28" value="Python" style="text;whiteSpace=wrap;html=1;fontSize=10;" vertex="1" parent="1">
          <mxGeometry x="60" y="115" width="40" height="30" as="geometry" />
        </mxCell>
      </root>
    </mxGraphModel>
  </diagram>
</mxfile>
